<?xml version="1.0" ?><svg data-name="Layer 1" id="Layer_1" viewBox="0 0 64 64" xmlns="http://www.w3.org/2000/svg"><title/><path d="M46.922,15H41v1.141a.86.86,0,0,1-.859.859H24.859A.86.86,0,0,1,24,16.141V15H18.078A2.052,2.052,0,0,0,16,17.026V51.974A2.052,2.052,0,0,0,18.078,54H46.922A2.052,2.052,0,0,0,49,51.974V17.026A2.052,2.052,0,0,0,46.922,15Z" style="fill:none;stroke:#000;stroke-miterlimit:10;stroke-width:2px"/><path d="M39.984,13H35v-.372a2.529,2.529,0,0,0-1.88-2.488A2.491,2.491,0,0,0,30,12.511V13H25.016A1.016,1.016,0,0,0,24,14.016v1.968A1.016,1.016,0,0,0,25.016,17H39.984A1.016,1.016,0,0,0,41,15.984V14.016A1.016,1.016,0,0,0,39.984,13Z" style="fill:none;stroke:#000;stroke-linecap:round;stroke-miterlimit:10;stroke-width:2px"/><path d="M25,24H43" style="fill:none;stroke:#000;stroke-linecap:round;stroke-miterlimit:10;stroke-width:2px"/><polyline points="19 23 20 24 23 20" style="fill:none;stroke:#000;stroke-linecap:round;stroke-miterlimit:10;stroke-width:2px"/><path d="M25,32H43" style="fill:none;stroke:#000;stroke-linecap:round;stroke-miterlimit:10;stroke-width:2px"/><polyline points="19 31 20 32 23 28" style="fill:none;stroke:#000;stroke-linecap:round;stroke-miterlimit:10;stroke-width:2px"/><path d="M25,40H43" style="fill:none;stroke:#000;stroke-linecap:round;stroke-miterlimit:10;stroke-width:2px"/><polyline points="19 39 20 40 23 36" style="fill:none;stroke:#000;stroke-linecap:round;stroke-miterlimit:10;stroke-width:2px"/><path d="M25,48H43" style="fill:none;stroke:#000;stroke-linecap:round;stroke-miterlimit:10;stroke-width:2px"/><polyline points="19 47 20 48 23 44" style="fill:none;stroke:#000;stroke-linecap:round;stroke-miterlimit:10;stroke-width:2px"/></svg>